<?xml version="1.0" encoding="utf-8"?>
<!-- Generator: Adobe Illustrator 25.2.1, SVG Export Plug-In . SVG Version: 6.00 Build 0)  -->
<svg version="1.1" id="Layer_1" xmlns="http://www.w3.org/2000/svg" xmlns:xlink="http://www.w3.org/1999/xlink" x="0px" y="0px"
	 viewBox="0 0 512 512" style="enable-background:new 0 0 512 512;" xml:space="preserve">
<style type="text/css">
	.st0{fill:#22408B;}
	.st1{fill:#FFFFFF;}
	.st2{fill:#7695CD;}
</style>
<rect x="-0.77" y="-0.77" class="st0" width="513.54" height="513.54"/>
<g>
	<path class="st2" d="M213.9,127.88c13.05,0,25.6,2.28,37.64,6.86c12.04,4.57,23.15,11.32,33.33,20.22l12.66-73.93
		c-12.64-6.34-25.6-11.1-38.87-14.28C245.39,63.59,231.68,62,217.53,62c-24.89,0-47.4,4.33-67.54,12.99
		c-18.64,8.02-34.32,19.48-47.31,34.08c-43.68,54.05,5.39,156.12,86.69,168.37c-14.38-2.29-26.03-7.82-34.89-16.62
		c-11.98-11.89-17.89-28.7-17.72-50.42c0.19-24.03,7.54-43.8,22.06-59.29C173.33,135.62,191.69,127.88,213.9,127.88z"/>
	<g>
		<polygon class="st1" points="196.52,173.59 319.61,387.98 386.68,387.98 261.54,173.59 		"/>
		<g>
			<path class="st1" d="M227.03,280.36l-1.9-3.3c-6.64,1.04-13.16,1.61-19.55,1.61c-2.93,0-5.76-0.12-8.52-0.33c0,0-0.01,0-0.01,0
				c-2.65-0.2-5.21-0.51-7.69-0.9c-81.3-12.25-130.38-114.32-86.69-168.37c-1.05,1.18-2.21,2.22-3.21,3.44
				c-11.58,14.02-20.4,29.61-26.44,46.75c-6.06,17.14-9.15,35.17-9.3,54.08c-0.31,39.16,10.94,70.58,33.76,94.24
				c16.42,17.04,36.89,27.85,61.27,32.62c2.55-2.93,5.31-5.74,8.32-8.36L227.03,280.36z"/>
		</g>
		<path class="st2" d="M448.29,125.57L184.59,352c-38.99,33.89-15.02,98,36.64,98H272l0,0c-37.22-15.76-48.17-63.28-21.6-93.73
			L448.29,125.57z"/>
		<polygon class="st2" points="448.29,125.57 379,151.53 412.83,161.2 424.24,195.54 		"/>
	</g>
</g>
</svg>
